This is my own rip.

General
Unique ID                        : 248206902766416877892074835171458867964 (0xBABAE91FF9867E0F9EB320555E12E2FC)
Format                           : Matroska
Format version                   : Version 4 / Version 2
File size                        : 2.68 GiB
Duration                         : 1h 57mn
Overall bit rate mode            : Variable
Overall bit rate                 : 3 276 Kbps
Encoded date                     : UTC 2010-02-22 21:41:31
Writing application              : mkvmerge v5.9.0 ('On The Loose') built on Dec  9 2012 15:37:01
Writing library                  : libebml v1.3.0 + libmatroska v1.4.0

Video
ID                               : 1
Format                           : AVC
Format/Info                      : Advanced Video Codec
Format profile                   : High@L4.1
Format settings, CABAC           : Yes
Format settings, ReFrames        : 7 frames
Codec ID                         : V_MPEG4/ISO/AVC
Duration                         : 1h 57mn
Bit rate mode                    : Variable
Bit rate                         : 2 827 Kbps
Maximum bit rate                 : 15.1 Mbps
Width                            : 1 280 pixels
Height                           : 692 pixels
Display aspect ratio             : 1.850
Frame rate                       : 23.976 fps
Color space                      : YUV
Chroma subsampling               : 4:2:0
Bit depth                        : 8 bits
Scan type                        : Progressive
Bits/(Pixel*Frame)               : 0.133
Stream size                      : 2.32 GiB (86%)
Writing library                  : x264 core 129 r2230 1cffe9f
Language                         : English
Default                          : Yes
Forced                           : No

Audio
ID                               : 2
Format                           : AC-3
Format/Info                      : Audio Coding 3
Mode extension                   : CM (complete main)
Codec ID                         : A_AC3
Duration                         : 1h 57mn
Bit rate mode                    : Constant
Bit rate                         : 384 Kbps
Channel(s)                       : 6 channels
Channel positions                : Front: L C R, Side: L R, LFE
Sampling rate                    : 48.0 KHz
Bit depth                        : 16 bits
Compression mode                 : Lossy
Stream size                      : 322 MiB (12%)
Language                         : English
Default                          : Yes
Forced                           : No

Menu
00:00:00.000                     : Opening Titles/Prison Break
00:09:25.148                     : Fish Fight
00:15:23.089                     : Reassigned
00:31:57.082                     : Illegal Procedure
00:43:56.592                     : A Nice Guy
00:55:01.882                     : Blowing His Cover
01:05:49.654                     : Bill
01:22:55.137                     : "It's Never Over 'Til It's Over"
01:34:14.357                     : Parole Violation
01:47:51.131                     : Always in Trouble
01:54:25.817                     : End Credits
